# xmcd
#
# Track frame offsets:
# 150
# 12827
# 21229
# 30981
# 41933
# 53785
# 63987
# 74414
# 87166
# 100218
# 113870
# 127297
# 138999
# 151226
# 165328
# 174405
# 190232
# 201484
# 213336
# 224888
# 234865
# 248367
# 261194
# 271846
# 282048
# 294800
# 304252
# 317229
#
# Disc length: 4387 seconds
#
# Revision: 1
# Processed by: cddbd v1.4PL0 Copyright (c) Steve Scherf et al.
# Submitted via: CedeCatalogueitor 2.5 http://usuarios.lycos.es/kakasboy
#
DISCID=9511211c
DTITLE=Nat King Cole - Grandes Exitos
DYEAR=1900
DGENRE=
TTITLE0=Quizas Quizas Quizas
TTITLE1=La Feria De Las Flores
TTITLE2=Tres Palabras
TTITLE3=Yo Vendo Unos Ojos Negros
TTITLE4=Vaya Con Dios
TTITLE5=Aquellos Ojos Verdes
TTITLE6=Ay Cosita Linda
TTITLE7=Solamente Una Vez
TTITLE8=Cachito
TTITLE9=Las Mañanitas
TTITLE10=Adios Mariquita Linda
TTITLE11=Noche De Ronda
TTITLE12=Te Quiero Dijiste
TTITLE13=No Me Platiques
TTITLE14=Fantastico
TTITLE15=Ansiedad
TTITLE16=El Bodeguero
TTITLE17=Nadie Me Ama
TTITLE18=Capullito De Alheli
TTITLE19=Adelita
TTITLE20=La Golondrina
TTITLE21=Arivererci Roma
TTITLE22=Perfidia
TTITLE23=Piel Canela
TTITLE24=Maria Elena
TTITLE25=Guadalajara
TTITLE26=Acercate Mas
TTITLE27=Las Chapanecas
EXTD=
EXTT0=
EXTT1=
EXTT2=
EXTT3=
EXTT4=
EXTT5=
EXTT6=
EXTT7=
EXTT8=
EXTT9=
EXTT10=
EXTT11=
EXTT12=
EXTT13=
EXTT14=
EXTT15=
EXTT16=
EXTT17=
EXTT18=
EXTT19=
EXTT20=
EXTT21=
EXTT22=
EXTT23=
EXTT24=
EXTT25=
EXTT26=
EXTT27=
PLAYORDER=
